<?xml version="1.0" encoding="UTF-8"?><svg id="a" xmlns="http://www.w3.org/2000/svg" xmlns:xlink="http://www.w3.org/1999/xlink" viewBox="0 0 288 288"><defs><style>.c{fill:url(#b);}.d{fill:#0e222a;}</style><linearGradient id="b" x1="177.214" y1="195.518" x2="287.301" y2="35.165" gradientTransform="translate(-106.289 81.748) rotate(-11.27)" gradientUnits="userSpaceOnUse"><stop offset="0" stop-color="#299862"/><stop offset=".261" stop-color="#259364"/><stop offset=".543" stop-color="#1b866a"/><stop offset=".832" stop-color="#0a7175"/><stop offset=".973" stop-color="#00647c"/></linearGradient></defs><path class="c" d="M187.843,218.301l12.102,24.062c-13.382,4.954-26.283,6.857-40.085,7.147-33.665-.049-66.222-11.812-91.881-33.646-20.915-17.797-36.134-42.451-39.247-70.051-2.759-24.458,5.296-48.272,22.226-66.002,30.472-31.914,79.8-37.356,120.525-24.383l-7.359,12.912c-32.684-9.386-73.267-2.992-95.3,25.132-8.598,10.975-13.337,23.973-13.633,38.018-.515,24.418,12.122,47.098,30.171,62.981,27.639,24.323,67.058,34.297,102.483,23.828ZM219.078,232.784c4.477-1.968,3.524-1.708,7.34-4.596,7.214-5.46,13.246-11.471,18.588-18.94.424-.593-.197-1.942-.74-2.288-1.449-.921-2.485-1.938-3.663-2.793l-14.462-10.497c-2.333.474-4.436,3.833-7.273,6.485-5.936,5.549-10.421,8.757-17.969,12.79l4.558,9.374c2.792,5.742,3.479,6.009,6.604,12.181.369.729,2.262,1.74,2.993,1.294,1.768-1.078,2.874-1.983,4.024-3.011ZM252.051,197.567c4.476-10.008,9.838-27.496,6.917-37.495l-2.937-.729c-4.192-1.04-8.275-1.286-12.422-2.254l-5.097-1.189-.268,6.143c-.066,1.521-.145,3.159-.591,4.484l-1.683,4.995-2.147,6.239-2.078,5.367,11.549,8.182,3.103,2.171,5.656,4.088ZM258.867,148.703c-.064-2.225-.259-3.791-.796-5.71l-1.38-4.929c-.869-1.694-1.657-3.193-1.611-5.23-2.304-7.016-5.082-13.102-8.646-19.83l-6.063,1.393c-1.857.427-3.692.963-5.449,1.521l-5.6,1.78c3.562,9.09,6.146,12.931,8.149,23.096l.747,3.793,7.907,1.576,12.74,2.539ZM229.69,106.218l10.124-2.784c-7.7-10.621-16.842-19.116-27.147-27.242-1.068.479-2.071,1.154-2.69,1.846l-4.584,5.127c-1.275,1.426-3.264,2.899-3.1,4.758,3.863,1.708,10.403,8.039,12.902,10.914l7.973,9.175,6.522-1.794Z"/><path class="d" d="M102.99,138.516c-6.496-6.781-5.305-18.067.913-23.627,5.333-5.269,12.423-4.654,18.052.084l23.581,26.672,20.211-22.536,44.809-56.72,19.218-23.308s3.39-1.307,4.671-.033c1.349,1.341,1.507,3.454.411,5.268l-33.57,55.569-13.261,21.897-21.304,35.38-7.38,12.367c-4.914,8.235-15.626,11.034-22.464,4.009l-21.46-22.048-12.428-12.973Z"/></svg>