<?xml version="1.0" encoding="UTF-8"?><svg id="a" xmlns="http://www.w3.org/2000/svg" viewBox="0 0 292.99 61.08"><defs><style>.b{fill:#418b59;}.c{fill:#0c222b;}</style></defs><path class="c" d="M13.08,29.1c0-8.67,6.14-14.81,14.81-14.81,6.92,0,12.57,3.91,14.28,9.89h-6.96c-1.38-2.48-4.03-3.95-7.2-3.95-5,0-8.46,3.66-8.46,8.87s3.33,8.87,8.54,8.87c4.15,0,7.08-2.32,7.89-5.78h-9.23v-5h16.07c.65,9.76-5.41,16.72-14.81,16.72-8.75,0-14.93-6.1-14.93-14.81Z"/><path class="c" d="M44.01,32.64c0-6.63,4.76-11.23,11.67-11.23,7.32,0,11.96,5.21,11.59,13.02h-17.13c.57,2.93,2.77,4.52,5.57,4.52,2.03,0,3.86-.81,4.88-2.24h6.26c-1.87,4.52-6.02,7.2-11.27,7.2-6.88,0-11.59-4.6-11.59-11.27ZM61.3,30.53c-.69-2.6-2.73-4.19-5.57-4.19s-4.84,1.59-5.53,4.19h11.11Z"/><path class="c" d="M71.39,35.25v-8.22h-4.15v-5.04h1.91c2.32,0,2.93-.57,3.25-2.77l.37-2.77h4.8v5.53h5.86v5.04h-5.86v7.28c0,2.48,1.14,3.66,3.58,3.66h2.56v5.37h-3.91c-5.41,0-8.42-2.89-8.42-8.1Z"/><path class="c" d="M104.39,31.87h-11.15v11.47h-6.47V14.87h6.47v10.94h11.15v-10.94h6.47v28.48h-6.47v-11.47Z"/><path class="c" d="M118.15,11.21c2.36,0,3.99,1.59,3.99,3.86s-1.63,3.86-3.99,3.86-3.99-1.59-3.99-3.86,1.63-3.86,3.99-3.86ZM115.06,21.99h6.18v21.36h-6.18v-21.36Z"/><path class="c" d="M131.17,41.67v9.8h-6.18v-29.49h4.6l.69,2.44c1.91-1.91,4.56-3.01,7.65-3.01,6.39,0,10.9,4.68,10.9,11.23s-4.51,11.27-10.9,11.27c-2.64,0-4.96-.81-6.75-2.24ZM136.82,38.58c3.5,0,5.9-2.44,5.9-5.94s-2.4-5.94-5.9-5.94-5.9,2.48-5.9,5.94,2.44,5.94,5.9,5.94Z"/><path class="b" d="M152.23,28.57c1.71-8.46,8.91-14.32,17.53-14.32,9.19,0,14.48,6.39,12.73,15.3-1.26,6.22-5.49,11.06-11.07,13.14l.12.65c.41,1.95,1.1,2.36,3.74,2.36h2.32l-1.02,5h-3.34c-4.19,0-6.71-1.83-7.53-5.33l-.33-1.51h-.45c-9.19,0-14.48-6.39-12.73-15.3ZM165.49,37.72c5.08,0,9.4-3.62,10.45-8.79,1.02-5.08-1.75-8.54-6.71-8.54s-9.44,3.62-10.46,8.79c-1.02,5.08,1.71,8.54,6.71,8.54Z"/><path class="b" d="M184,33.94l2.4-12h6.31l-2.36,11.72c-.65,3.17.41,4.88,2.97,4.88,2.89,0,5.12-2.16,5.82-5.53l2.2-11.06h6.31l-4.27,21.36h-4.52l-.16-2.24c-1.99,1.87-4.6,2.81-7.36,2.81-5.69,0-8.54-3.99-7.32-9.93Z"/><path class="b" d="M211.75,21.94h6.31l-4.27,21.36h-6.31l4.27-21.36ZM216.63,11.16c2.56,0,3.99,1.91,3.5,4.31-.45,2.12-2.08,3.42-4.23,3.42-2.56,0-4.03-1.87-3.5-4.27.45-2.16,2.07-3.46,4.23-3.46Z"/><path class="b" d="M218.55,32.19c1.26-6.43,6.71-10.82,13.46-10.82,5.94,0,10.05,3.54,10.05,8.79h-5.86c-.53-2.24-2.28-3.5-4.68-3.5-3.38,0-6.22,2.52-6.96,6.1-.69,3.5,1.1,5.78,4.35,5.78,2.56,0,4.96-1.42,6.39-3.86h6.14c-2.24,5.7-7.2,9.19-13.18,9.19-7.12,0-11.07-4.88-9.72-11.67Z"/><path class="b" d="M248.33,13.19h6.31l-3.3,16.43h1.42c2.56,0,3.82-.73,5.13-3.13l2.48-4.56h6.79l-3.82,6.88c-1.06,1.91-2.24,3.38-3.66,4.39l4.07,10.09h-6.67l-3.13-8.18c-.41.04-.77.04-1.18.04h-2.52l-1.63,8.14h-6.3l6.02-30.1Z"/><path class="b" d="M274.06,23.41c0,.44-.21.8-.64,1.08-.39.26-.89.39-1.5.39-.5,0-.94-.11-1.3-.32-.25-.15-.48-.32-.68-.52l.51-.47c.19.21.42.38.7.51.28.13.56.2.85.2.35,0,.64-.08.86-.23.23-.15.34-.36.34-.6s-.13-.43-.4-.57c-.15-.08-.25-.12-.29-.14-.05-.02-.15-.06-.3-.11-.43-.13-.75-.24-.98-.33-.25-.1-.46-.21-.61-.35-.27-.23-.4-.51-.4-.86,0-.39.19-.71.56-.96.37-.24.84-.37,1.41-.37.66,0,1.25.21,1.76.64l-.45.47c-.42-.35-.87-.53-1.35-.53-.32,0-.58.06-.77.18-.2.12-.29.29-.29.51s.09.39.26.51c.12.08.3.16.53.24l1.13.38c.29.11.52.24.69.4.25.25.37.53.37.83Z"/><path class="b" d="M280.04,19.83h1.06l.56,4.96h-.85l-.4-3.92h-.03l-1.88,3.96h-.49l-1.88-3.96h-.03l-.39,3.92h-.85l.55-4.96h1.07l1.77,3.83h.02l1.77-3.83Z"/></svg>