<?xml version="1.0" encoding="UTF-8"?>
<svg id="a" xmlns="http://www.w3.org/2000/svg" version="1.1" viewBox="0 0 293 61.1">
  <!-- Generator: Adobe Illustrator 30.3.0, SVG Export Plug-In . SVG Version: 2.1.3 Build 182)  -->
  <defs>
    <style>
      .st0 {
        fill: #0c222b;
      }

      .st1 {
        fill: #289663;
      }
    </style>
  </defs>
  <path class="st0" d="M13.1,29.1c0-8.7,6.1-14.8,14.8-14.8s12.6,3.9,14.3,9.9h-7c-1.4-2.5-4-4-7.2-4-5,0-8.5,3.7-8.5,8.9s3.3,8.9,8.5,8.9,7.1-2.3,7.9-5.8h-9.2v-5h16.1c.7,9.8-5.4,16.7-14.8,16.7s-14.9-6.1-14.9-14.8Z"/>
  <path class="st0" d="M44,32.6c0-6.6,4.8-11.2,11.7-11.2s12,5.2,11.6,13h-17.1c.6,2.9,2.8,4.5,5.6,4.5s3.9-.8,4.9-2.2h6.3c-1.9,4.5-6,7.2-11.3,7.2s-11.6-4.6-11.6-11.3h0ZM61.3,30.5c-.7-2.6-2.7-4.2-5.6-4.2s-4.8,1.6-5.5,4.2h11.1,0Z"/>
  <path class="st0" d="M71.4,35.2v-8.2h-4.2v-5h1.9c2.3,0,2.9-.6,3.2-2.8l.4-2.8h4.8v5.5h5.9v5h-5.9v7.3c0,2.5,1.1,3.7,3.6,3.7h2.6v5.4h-3.9c-5.4,0-8.4-2.9-8.4-8.1h0Z"/>
  <path class="st0" d="M104.4,31.9h-11.2v11.5h-6.5V14.9h6.5v10.9h11.2v-10.9h6.5v28.5h-6.5v-11.5h0Z"/>
  <path class="st0" d="M118.2,11.2c2.4,0,4,1.6,4,3.9s-1.6,3.9-4,3.9-4-1.6-4-3.9,1.6-3.9,4-3.9ZM115.1,22h6.2v21.4h-6.2s0-21.4,0-21.4Z"/>
  <path class="st0" d="M131.2,41.7v9.8h-6.2v-29.5h4.6l.7,2.4c1.9-1.9,4.6-3,7.6-3,6.4,0,10.9,4.7,10.9,11.2s-4.5,11.3-10.9,11.3-5-.8-6.8-2.2h0ZM136.8,38.6c3.5,0,5.9-2.4,5.9-5.9s-2.4-5.9-5.9-5.9-5.9,2.5-5.9,5.9,2.4,5.9,5.9,5.9Z"/>
  <path class="st1" d="M152.2,28.6c1.7-8.5,8.9-14.3,17.5-14.3s14.5,6.4,12.7,15.3c-1.3,6.2-5.5,11.1-11.1,13.1v.7c.5,2,1.2,2.4,3.9,2.4h2.3l-1,5h-3.3c-4.2,0-6.7-1.8-7.5-5.3l-.3-1.5h-.4c-9.2,0-14.5-6.4-12.7-15.3h0ZM165.5,37.7c5.1,0,9.4-3.6,10.4-8.8,1-5.1-1.8-8.5-6.7-8.5s-9.4,3.6-10.5,8.8c-1,5.1,1.7,8.5,6.7,8.5h0Z"/>
  <path class="st1" d="M184,33.9l2.4-12h6.3l-2.4,11.7c-.6,3.2.4,4.9,3,4.9s5.1-2.2,5.8-5.5l2.2-11.1h6.3l-4.3,21.4h-4.5l-.2-2.2c-2,1.9-4.6,2.8-7.4,2.8-5.7,0-8.5-4-7.3-9.9h0Z"/>
  <path class="st1" d="M211.8,21.9h6.3l-4.3,21.4h-6.3s4.3-21.4,4.3-21.4ZM216.6,11.2c2.6,0,4,1.9,3.5,4.3-.4,2.1-2.1,3.4-4.2,3.4s-4-1.9-3.5-4.3c.4-2.2,2.1-3.5,4.2-3.5Z"/>
  <path class="st1" d="M218.6,32.2c1.3-6.4,6.7-10.8,13.5-10.8s10.1,3.5,10.1,8.8h-5.9c-.5-2.2-2.3-3.5-4.7-3.5s-6.2,2.5-7,6.1c-.7,3.5,1.1,5.8,4.4,5.8s5-1.4,6.4-3.9h6.1c-2.2,5.7-7.2,9.2-13.2,9.2s-11.1-4.9-9.7-11.7h0Z"/>
  <path class="st1" d="M248.3,13.2h6.3l-3.3,16.4h1.4c2.6,0,3.8-.7,5.1-3.1l2.5-4.6h6.8l-3.8,6.9c-1.1,1.9-2.2,3.4-3.7,4.4l4.1,10.1h-6.7l-3.1-8.2c-.4,0-.8,0-1.2,0h-2.5l-1.6,8.1h-6.3l6-30.1h0Z"/>
  <path class="st1" d="M274.1,23.4c0,.4-.2.8-.6,1.1-.4.3-.9.4-1.5.4s-.9-.1-1.3-.3c-.2-.1-.5-.3-.7-.5l.5-.5c.2.2.4.4.7.5.3.1.6.2.9.2s.6,0,.9-.2c.2-.1.3-.4.3-.6s-.1-.4-.4-.6c-.1,0-.2-.1-.3-.1,0,0-.1,0-.3-.1-.4-.1-.8-.2-1-.3-.2-.1-.5-.2-.6-.4-.3-.2-.4-.5-.4-.9s.2-.7.6-1c.4-.2.8-.4,1.4-.4s1.2.2,1.8.6l-.5.5c-.4-.4-.9-.5-1.4-.5s-.6,0-.8.2c-.2.1-.3.3-.3.5s0,.4.3.5c.1,0,.3.2.5.2l1.1.4c.3.1.5.2.7.4.2.2.4.5.4.8h0Z"/>
  <path class="st1" d="M280,19.8h1.1l.6,5h-.9l-.4-3.9h0l-1.9,4h-.5l-1.9-4h0l-.4,3.9h-.9l.5-5h1.1l1.8,3.8h0l1.8-3.8h0Z"/>
</svg>